<svg class="h-5 w-5" xmlns="http://www.w3.org/2000/svg" viewBox="0 0 18.5 18.5">
<g id="Layer_2" data-name="Layer 2">
<g id="Layer_1-2" data-name="Layer 1">
<path d="M17.2,18.5l-4.9-4.9a8.1,8.1,0,0,1-4.7,1.6A7.9,7.9,0,0,1,2.2,13,7.9,7.9,0,0,1,0,7.6,7.9,7.9,0,0,1,2.2,2.2,7.9,7.9,0,0,1,7.6,0,7.9,7.9,0,0,1,13,2.2a7.9,7.9,0,0,1,2.2,5.4,8.1,8.1,0,0,1-1.6,4.7l4.9,4.9ZM7.6,13.3a6.2,6.2,0,0,0,4.1-1.6,6.2,6.2,0,0,0,1.6-4.1,6.2,6.2,0,0,0-1.6-4.1,5.8,5.8,0,1,0-8.2,8.2A6.2,6.2,0,0,0,7.6,13.3Z" style="fill: #734060"/>
</g>
</g>
<title>search</title></svg>