<svg xmlns="http://www.w3.org/2000/svg"><symbol style="enable-background:new 0 0 10.7 10.7" id="sprite-icon-arrow" viewBox="0 0 10.7 10.7"><title>icon-arrow</title><path d="m10.7 5.3-5.4 5.4L0 5.3l1-.9 3.7 3.7V0H6v8.1l3.8-3.7.9.9z" style="fill:#734060"/></symbol><symbol id="sprite-icon-chevron-white" viewBox="0 0 5.9 9.5"><title>icon-chevron-white</title><g data-name="Layer 2"><g data-name="Layer 1"><g data-name="Layer 2"><path d="m0 8.4 3.6-3.6L0 1.1 1.1 0l4.8 4.8-4.8 4.7Z" style="fill:#fff" data-name="Layer 1-2"/></g></g></g></symbol><symbol id="sprite-icon-chevron" viewBox="0 0 5.9 9.5"><title>icon-chevron</title><g data-name="Layer 2"><path d="m0 8.4 3.6-3.6L0 1.1 1.1 0l4.8 4.8-4.8 4.7Z" fill="currentColor" data-name="Layer 1"/></g></symbol><symbol id="sprite-icon-comment" viewBox="0 0 13.3 13.3"><title>icon-comment</title><g data-name="Layer 2"><path d="M13.3 1.3v12l-2.6-2.6H1.3a1.4 1.4 0 0 1-.9-.5 1 1 0 0 1-.4-.9v-8A1.2 1.2 0 0 1 .4.4a1.2 1.2 0 0 1 .9-.4H12a1 1 0 0 1 .9.4 1.2 1.2 0 0 1 .4.9ZM10.7 4V2.7h-8V4Zm0 2V4.7h-8V6Zm0 2V6.7h-8V8Z" style="fill:#734060" data-name="Layer 1"/></g></symbol><symbol style="enable-background:new 0 0 320 512" id="sprite-icon-facebook" viewBox="0 0 320 512"><title>icon-facebook</title><path class="st0" d="m279.1 288 14.2-92.7h-88.9v-60.1c0-25.3 12.4-50.1 52.2-50.1H297V6.3S260.3 0 225.3 0c-73.2 0-121.1 44.4-121.1 124.7v70.6H22.9V288h81.4v224h100.2V288h74.6z" fill="currentColor"/></symbol><symbol id="sprite-icon-heart" viewBox="0 0 28.4 24.8"><title>icon-heart</title><g data-name="Layer 2"><path d="M26.2 2.2A7.5 7.5 0 0 0 20.9 0a7.9 7.9 0 0 0-5.4 2.2l-1.3 1.4-1.3-1.4a7.6 7.6 0 0 0-10.7 0 7.8 7.8 0 0 0 0 10.8l11.7 11.7h.7L26.2 13a7.6 7.6 0 0 0 0-10.8Zm-.7 10.1L14.2 23.7 2.9 12.3a6.6 6.6 0 0 1 0-9.4A6.2 6.2 0 0 1 7.5 1a6.3 6.3 0 0 1 4.7 1.9l1.7 1.7h.7l1.6-1.7A6.4 6.4 0 0 1 20.9 1a6.6 6.6 0 0 1 4.7 1.9 6.7 6.7 0 0 1-.1 9.4Z" style="fill:#ebb454" data-name="Layer 1"/></g></symbol><symbol style="enable-background:new 0 0 448 512" id="sprite-icon-instagram" viewBox="0 0 448 512"><title>icon-instagram</title><path class="st0" d="M224.1 141c-63.6 0-114.9 51.3-114.9 114.9s51.3 114.9 114.9 114.9S339 319.5 339 255.9 287.7 141 224.1 141zm0 189.6c-41.1 0-74.7-33.5-74.7-74.7s33.5-74.7 74.7-74.7 74.7 33.5 74.7 74.7-33.6 74.7-74.7 74.7zm146.4-194.3c0 14.9-12 26.8-26.8 26.8-14.9 0-26.8-12-26.8-26.8s12-26.8 26.8-26.8 26.8 12 26.8 26.8zm76.1 27.2c-1.7-35.9-9.9-67.7-36.2-93.9-26.2-26.2-58-34.4-93.9-36.2-37-2.1-147.9-2.1-184.9 0-35.8 1.7-67.6 9.9-93.9 36.1s-34.4 58-36.2 93.9c-2.1 37-2.1 147.9 0 184.9 1.7 35.9 9.9 67.7 36.2 93.9s58 34.4 93.9 36.2c37 2.1 147.9 2.1 184.9 0 35.9-1.7 67.7-9.9 93.9-36.2 26.2-26.2 34.4-58 36.2-93.9 2.1-37 2.1-147.8 0-184.8zM398.8 388c-7.8 19.6-22.9 34.7-42.6 42.6-29.5 11.7-99.5 9-132.1 9s-102.7 2.6-132.1-9c-19.6-7.8-34.7-22.9-42.6-42.6-11.7-29.5-9-99.5-9-132.1s-2.6-102.7 9-132.1c7.8-19.6 22.9-34.7 42.6-42.6 29.5-11.7 99.5-9 132.1-9s102.7-2.6 132.1 9c19.6 7.8 34.7 22.9 42.6 42.6 11.7 29.5 9 99.5 9 132.1s2.7 102.7-9 132.1z" fill="currentColor"/></symbol><symbol id="sprite-icon-instant-pot" viewBox="0 0 41 43"><title>icon-instant-pot</title><g data-name="Layer 2"><path d="M3.6 11.4h.1a.7.7 0 0 0 .7-.6.6.6 0 0 0-.6-.8 1.1 1.1 0 0 1-.6-.4c-.1-.3-.3-1.2 1.1-3.3s1.9-3.9 1.5-5A2.4 2.4 0 0 0 4.6 0a.7.7 0 0 0-.9.5.8.8 0 0 0 .4.9c.1 0 .2.1.3.4s.2 1.4-1.3 3.7-1.7 3.6-1.2 4.7a2 2 0 0 0 1.7 1.2Zm4.6-3.2h.1a.7.7 0 0 0 .7-.6.8.8 0 0 0-.7-.8s-.2-.4.6-1.6 1.2-2.4.9-3.2a1.4 1.4 0 0 0-.9-.8.7.7 0 0 0-.9.4.6.6 0 0 0 .4.9c0 .1.2.6-.7 1.9s-1 2.3-.7 3a1.3 1.3 0 0 0 1.2.8Zm32 11.4a10.6 10.6 0 0 0-5.4 1.5v-2a.7.7 0 0 0-.7-.7H6.9a.7.7 0 0 0-.7.7v2a11 11 0 0 0-5.5-1.5.8.8 0 0 0-.7.7.7.7 0 0 0 .7.7 8.4 8.4 0 0 1 5.5 1.9v13.5a6.7 6.7 0 0 0 6.6 6.6h15.4a6.7 6.7 0 0 0 6.6-6.6V22.9a8.1 8.1 0 0 1 5.5-1.9.7.7 0 0 0 .7-.7.8.8 0 0 0-.8-.7Zm-6.8 16.8a5.2 5.2 0 0 1-5.2 5.1H12.8a5.1 5.1 0 0 1-5.2-5.1V19.8h25.8ZM7.3 11.9l10.1 1.5 7.4 1.1 9.2 1.4h.1a.9.9 0 0 0 .7-.6.9.9 0 0 0-.6-.9l-8.6-1.2a3.7 3.7 0 0 0-1.1-2.7 4.6 4.6 0 0 0-7.5 1.4l-9.5-1.4c-.4-.1-.7.2-.8.6s.2.8.6.8Zm13.9-1.4a3.4 3.4 0 0 1 2.3 1 3.5 3.5 0 0 1 .7 1.5l-5.7-.9a2.9 2.9 0 0 1 2.7-1.6Z" fill="currentColor" data-name="Layer 1"/></g></symbol><symbol id="sprite-icon-list" viewBox="0 0 32.2 41.6"><title>icon-list</title><g data-name="Layer 2"><g data-name="Layer 1"><path d="M25.9 33.3H7.7a.7.7 0 0 0 0 1.4h18.2a.7.7 0 0 0 0-1.4Zm0-5.6H7.7a.7.7 0 0 0-.7.6.7.7 0 0 0 .7.7h18.2a.7.7 0 0 0 .7-.7.7.7 0 0 0-.7-.6Zm0-5.7H7.7a.7.7 0 1 0 0 1.4h18.2a.7.7 0 0 0 0-1.4ZM7.7 17.9H16a.7.7 0 1 0 0-1.4H7.7a.7.7 0 1 0 0 1.4Z" style="fill:#ebb454"/><path d="M31.5 2.5h-6.3V.7a.7.7 0 0 0-1.4 0v1.8h-7.1V.7a.7.7 0 0 0-1.4 0v1.8H8.4V.7A.7.7 0 0 0 7 .7v1.8H.7a.7.7 0 0 0-.7.7v37.7a.7.7 0 0 0 .7.7h30.8a.8.8 0 0 0 .7-.7V3.2a.8.8 0 0 0-.7-.7Zm-.7 37.7H1.4V3.9H7v2.8a2.8 2.8 0 0 0-2.1 2.6 2.9 2.9 0 0 0 2.8 2.8 2.8 2.8 0 0 0 .7-5.4V3.9h6.9v2.8a2.8 2.8 0 0 0 .7 5.4 2.8 2.8 0 0 0 2.7-2.8 2.7 2.7 0 0 0-2-2.6V3.9h7.1v2.8a2.8 2.8 0 0 0 .7 5.4 2.9 2.9 0 0 0 2.8-2.8 2.8 2.8 0 0 0-2.1-2.6V3.9h5.6ZM7 8.2a.7.7 0 0 0 .7.6.6.6 0 0 0 .6-.6 1.4 1.4 0 1 1-1.3 0Zm8.4 0a.6.6 0 0 0 .6.6.9.9 0 0 0 .7-.6 1.4 1.4 0 0 1 .6 1.1 1.3 1.3 0 1 1-2.6 0 1.2 1.2 0 0 1 .7-1.1Zm8.5 0a.6.6 0 0 0 .6.6.7.7 0 0 0 .7-.6 1.4 1.4 0 1 1-1.3 0Z" style="fill:#ebb454"/></g></g></symbol><symbol id="sprite-icon-lock" viewBox="0 0 8 10.5"><title>icon-lock</title><g data-name="Layer 2"><path d="M7 3.5a.9.9 0 0 1 .7.3.9.9 0 0 1 .3.7v5a1 1 0 0 1-1 1H1a.9.9 0 0 1-.7-.3.9.9 0 0 1-.3-.7v-5a.9.9 0 0 1 .3-.7.9.9 0 0 1 .7-.3h.5v-1A2.4 2.4 0 0 1 4 0a2.4 2.4 0 0 1 2.5 2.5v1Zm-1.4 0v-1a1.6 1.6 0 0 0-.5-1.1A1.5 1.5 0 0 0 4 1a1.5 1.5 0 0 0-1.1.4 1.5 1.5 0 0 0-.4 1.1v1ZM3.3 7.7A.9.9 0 0 0 4 8a.9.9 0 0 0 .7-.3 1 1 0 0 0 0-1.4A.9.9 0 0 0 4 6a.9.9 0 0 0-.7.3 1 1 0 0 0 0 1.4Z" style="fill:#d1b7ca" data-name="Layer 1"/></g></symbol><symbol id="sprite-icon-meal-prep" viewBox="0 0 38.8 40.7"><title>icon-meal-prep</title><g data-name="Layer 2"><g fill="currentColor" data-name="Layer 1"><path d="M38.2 35.3H.7a.7.7 0 0 0-.7.7.7.7 0 0 0 .7.6H2l1.9 3.7c.2.2.4.4.6.4h29.6a.7.7 0 0 0 .6-.4l2-3.7h1.5a.6.6 0 0 0 .6-.6.7.7 0 0 0-.6-.7Zm-4.5 4H5l-1.5-2.7h31.6ZM2.4 33.8h33.9a.7.7 0 0 0 .7-.7c0-10.5-7.5-18.2-17.7-18.2S1.7 22.6 1.7 33.1a.7.7 0 0 0 .7.7Zm16.9-17.5c9.2 0 16 6.7 16.3 16.2H3.1c.3-9.5 7-16.2 16.2-16.2Zm-2-1.9a.8.8 0 0 0 .7-.7c0-1.8 1.5-2.1 2.2-1.4a2 2 0 0 1 .4 1.4.8.8 0 0 0 .7.7.8.8 0 0 0 .7-.7c0-4.1-5.4-4.1-5.4 0a.8.8 0 0 0 .7.7Z"/><path d="M14.6 19.9c-3.6 1.5-5.9 4.5-7.2 8.9a.8.8 0 0 0 .4.9H8a.8.8 0 0 0 .7-.5c1.2-4 3.3-6.7 6.4-8a.7.7 0 1 0-.5-1.3Zm4.7-12a.7.7 0 0 0 .7-.6V.7a.7.7 0 1 0-1.4 0v6.6a.7.7 0 0 0 .7.6Zm9.8 4.1a.6.6 0 0 0 .5-.2l5-5.3a.7.7 0 0 0 0-1 .8.8 0 0 0-1 .1l-5 5.3a.6.6 0 0 0 0 .9c.1.2.3.2.5.2Zm-20-.2c.1.2.3.2.5.2a.6.6 0 0 0 .5-.2.7.7 0 0 0 0-.9L5 5.6a.6.6 0 0 0-.9-.1.8.8 0 0 0-.1 1Z"/></g></g></symbol><symbol id="sprite-icon-next" viewBox="0 0 17.7 17.7"><title>icon-next</title><g data-name="Layer 2"><g fill="currentColor" stroke="currentColor" data-name="Layer 1"><path d="M8.8.5A8.3 8.3 0 0 0 .5 8.8a8.4 8.4 0 0 0 8.3 8.4 8.5 8.5 0 0 0 8.4-8.4A8.4 8.4 0 0 0 8.8.5Zm0 16.1a7.8 7.8 0 1 1 7.8-7.8 7.8 7.8 0 0 1-7.8 7.8Z"/><path d="M13.2 9h-.1L9.7 5.5h-.4a.3.3 0 0 0 0 .4l2.9 2.9H4.7a.3.3 0 0 0 0 .6h7.5l-2.9 2.9a.3.3 0 0 0 0 .4h.4l3.4-3.4a.1.1 0 0 1 .1-.1Z"/></g></g></symbol><symbol style="enable-background:new 0 0 384 512" id="sprite-icon-pinterest" viewBox="0 0 384 512"><title>icon-pinterest</title><path class="st0" d="M204 6.5C101.4 6.5 0 74.9 0 185.6 0 256 39.6 296 63.6 296c9.9 0 15.6-27.6 15.6-35.4 0-9.3-23.7-29.1-23.7-67.8 0-80.4 61.2-137.4 140.4-137.4 68.1 0 118.5 38.7 118.5 109.8 0 53.1-21.3 152.7-90.3 152.7-24.9 0-46.2-18-46.2-43.8 0-37.8 26.4-74.4 26.4-113.4 0-66.2-93.9-54.2-93.9 25.8 0 16.8 2.1 35.4 9.6 50.7-13.8 59.4-42 147.9-42 209.1 0 18.9 2.7 37.5 4.5 56.4 3.4 3.8 1.7 3.4 6.9 1.5 50.4-69 48.6-82.5 71.4-172.8 12.3 23.4 44.1 36 69.3 36 106.2 0 153.9-103.5 153.9-196.8C384 71.3 298.2 6.5 204 6.5z" fill="currentColor"/></symbol><symbol id="sprite-icon-popular" viewBox="0 0 36.2 39.7"><title>icon-popular</title><g data-name="Layer 2"><g fill="currentColor" data-name="Layer 1"><path d="M24.1 34.8a.8.8 0 0 0-.7-.4h-2.7v-5.9a.7.7 0 0 0-.6-.7.7.7 0 0 0-.7.7v5.9h-2.6v-5.9a.7.7 0 0 0-.7-.7.7.7 0 0 0-.6.7v5.9h-2.7a.8.8 0 0 0-.7.4l-1 4a.5.5 0 0 0 .1.6.5.5 0 0 0 .5.3h12.8a.7.7 0 0 0 .7-.7c0-.1-.1-.2-.1-.3Zm-11.5 3.5.7-2.6h9.6l.7 2.6ZM31.9 4.7a4.1 4.1 0 0 0-1.9-.1V1.8A1.9 1.9 0 0 0 28.1 0h-20a1.8 1.8 0 0 0-1.9 1.8v2.8a4.1 4.1 0 0 0-1.9.1c-3.3.9-5.1 5-4 9.1a8.2 8.2 0 0 0 3.8 5.3 5 5 0 0 0 2.8.8h.8a11.8 11.8 0 0 0 10.4 6.6 11.8 11.8 0 0 0 10.4-6.6h.8a4.7 4.7 0 0 0 2.7-.8 8.4 8.4 0 0 0 3.9-5.3c1-4.1-.7-8.2-4-9.1ZM4.8 18a7.3 7.3 0 0 1-3.2-4.5C.7 10 2 6.7 4.6 6h1.6v7.7a13.3 13.3 0 0 0 .9 4.9 4.9 4.9 0 0 1-2.3-.6Zm13.3 7.2c-5.8 0-10.6-5.2-10.6-11.5V1.8a.6.6 0 0 1 .6-.5h20a.5.5 0 0 1 .5.5v11.9c0 6.3-4.7 11.5-10.5 11.5Zm16.5-11.7a7.7 7.7 0 0 1-3.2 4.5 5.3 5.3 0 0 1-2.3.6 15.8 15.8 0 0 0 .9-4.9V6h1.6c2.5.7 3.9 4 3 7.5Z"/><path d="M21.5 9.4h-1.3l-.3-1c-.8-2.4-1.1-3.1-1.8-3.1s-1 .7-1.7 2.9l-.5 1.2h-1c-2.6 0-3.3 0-3.5.7s.3 1.2 2.2 2.6l1 .8-.3 1c-.7 2.2-.9 2.9-.5 3.4a.7.7 0 0 0 .6.3c.6 0 1.1-.4 2.6-1.4l1.1-.8.9.6c1.6 1.2 2.2 1.6 2.8 1.6a.7.7 0 0 0 .6-.3c.4-.5.2-1.1-.4-3.2a5.6 5.6 0 0 1-.4-1.2l.8-.7c2.1-1.5 2.7-2 2.4-2.7s-.9-.7-3.3-.7Zm.1 2.3-1.2 1a.6.6 0 0 0-.2.7c.2.6.3 1.2.5 1.7a10.3 10.3 0 0 1 .4 1.4l-1.3-1-1.3-.9h-.8l-1.5 1.1-1.1.8.5-1.6.4-1.5a.6.6 0 0 0-.2-.7l-1.5-1.1-1.1-.9h3.2a.6.6 0 0 0 .6-.5 7 7 0 0 0 .6-1.7c.2-.5.3-1 .5-1.4a14.2 14.2 0 0 0 .5 1.6l.5 1.5a.8.8 0 0 0 .7.5H23Z"/></g></g></symbol><symbol id="sprite-icon-quote" viewBox="0 0 50.2 34.7"><title>icon-quote</title><g data-name="Layer 2"><path d="M13.5 15.7a8.7 8.7 0 0 1 8.9 9.1c0 5.8-4.3 9.9-10.4 9.9S0 29 0 21.2C0 8 10.4.1 23.6 0v1.9C13.3 3 5.8 8.6 6.6 18.7a8.3 8.3 0 0 1 6.9-3Zm26.6 0a8.8 8.8 0 0 1 8.9 9.1c0 5.8-4.4 9.9-10.4 9.9s-12-5.7-12-13.5C26.6 8 37 .1 50.2 0v1.9C39.9 3 32.4 8.6 33.1 18.7c1.3-1.8 3.9-3 7-3Z" style="fill:#e4e4e4" data-name="Layer 1"/></g></symbol><symbol id="sprite-icon-search" viewBox="0 0 18.5 18.5"><title>icon-search</title><g data-name="Layer 2"><path d="m17.2 18.5-4.9-4.9a8.1 8.1 0 0 1-4.7 1.6A7.9 7.9 0 0 1 2.2 13 7.9 7.9 0 0 1 0 7.6a7.9 7.9 0 0 1 2.2-5.4A7.9 7.9 0 0 1 7.6 0 7.9 7.9 0 0 1 13 2.2a7.9 7.9 0 0 1 2.2 5.4 8.1 8.1 0 0 1-1.6 4.7l4.9 4.9Zm-9.6-5.2a6.2 6.2 0 0 0 4.1-1.6 6.2 6.2 0 0 0 1.6-4.1 6.2 6.2 0 0 0-1.6-4.1 5.8 5.8 0 1 0-8.2 8.2 6.2 6.2 0 0 0 4.1 1.6Z" style="fill:#734060" data-name="Layer 1"/></g></symbol><symbol id="sprite-icon-sugar-free" viewBox="0 0 42.9 40.3"><title>icon-sugar-free</title><g data-name="Layer 2"><g fill="currentColor" data-name="Layer 1"><path d="M41.8 22.8H27.7l-2.3-5.1c-.1-.3-.4-.4-.8-.4s-.5.3-.6.6l-2.1 10.2-3.8-16.6a.8.8 0 0 0-.7-.5.7.7 0 0 0-.7.5l-3 11.3H1a.7.7 0 0 0-.7.7.8.8 0 0 0 .7.8h13.2a.7.7 0 0 0 .7-.6l2.4-9 4 16.9a.7.7 0 0 0 .7.5.8.8 0 0 0 .7-.5L25 20.4l1.5 3.4a.8.8 0 0 0 .7.5h14.6a.9.9 0 0 0 .8-.8.8.8 0 0 0-.8-.7Z"/><path d="M3.8 19.9a.7.7 0 0 0 .1-1 10.6 10.6 0 0 1-2.5-6.8A10.7 10.7 0 0 1 12 1.4a11.4 11.4 0 0 1 8.9 4.4.5.5 0 0 0 .5.3.6.6 0 0 0 .6-.3 11.4 11.4 0 0 1 8.9-4.4 10.6 10.6 0 0 1 10.5 10.7 10.5 10.5 0 0 1-2.4 6.8.7.7 0 0 0 .1 1l.4.2a.9.9 0 0 0 .6-.3A12.1 12.1 0 0 0 30.9 0a12.8 12.8 0 0 0-9.5 4.3A12.4 12.4 0 0 0 12 0a12.1 12.1 0 0 0-9.2 19.8.7.7 0 0 0 1 .1Zm28.7 6.4L22.1 38.4a1 1 0 0 1-.9.4.9.9 0 0 1-.8-.4L10.2 26.3a.7.7 0 0 0-1 0 .7.7 0 0 0-.1 1l10.2 12a2.4 2.4 0 0 0 1.9 1 2.9 2.9 0 0 0 2-.9l10.4-12.1a.7.7 0 0 0 0-1 .8.8 0 0 0-1.1 0Z"/></g></g></symbol><symbol style="enable-background:new 0 0 512 512" id="sprite-icon-twitter" viewBox="0 0 512 512"><title>icon-twitter</title><path class="st0" d="M459.4 151.7c.3 4.5.3 9.1.3 13.6 0 138.7-105.6 298.6-298.6 298.6-59.5 0-114.7-17.2-161.1-47.1 8.4 1 16.6 1.3 25.3 1.3 49.1 0 94.2-16.6 130.3-44.8-46.1-1-84.8-31.2-98.1-72.8 6.5 1 13 1.6 19.8 1.6 9.4 0 18.8-1.3 27.6-3.6-48.1-9.7-84.1-52-84.1-103v-1.3c14 7.8 30.2 12.7 47.4 13.3-28.3-18.8-46.8-51-46.8-87.4 0-19.5 5.2-37.4 14.3-53 51.7 63.8 129.3 105.4 216.4 110-1.6-7.8-2.6-15.9-2.6-24 0-57.8 46.8-104.9 104.9-104.9 30.2 0 57.5 12.7 76.7 33.1 23.7-4.5 46.5-13.3 66.6-25.3-7.8 24.4-24.4 44.8-46.1 57.8 21.1-2.3 41.6-8.1 60.4-16.2-14.3 20.7-32.2 39.2-52.6 54.1z" fill="currentColor"/></symbol><symbol id="sprite-icon-vegan" viewBox="0 0 40.8 40.6"><title>icon-vegan</title><g data-name="Layer 2"><g fill="currentColor" data-name="Layer 1"><path d="m40.6 21.8-.5-.2H.7l-.5.2a.6.6 0 0 0-.2.5c.6 6.9 5.8 13.2 13.4 16.2v1.4a.7.7 0 0 0 .7.7h12.6a.7.7 0 0 0 .7-.7v-1.4c7.6-3 12.8-9.3 13.4-16.2a.6.6 0 0 0-.2-.5ZM26.5 37.4a.8.8 0 0 0-.5.7v1.1H14.8v-1.1a.8.8 0 0 0-.5-.7c-7-2.7-12-8.3-12.9-14.4h38c-.9 6.1-5.9 11.7-12.9 14.4ZM3 19.5a1.1 1.1 0 0 0 .7.8H4a.7.7 0 0 0 .6-.3.6.6 0 0 0-.3-.9s-.1-.3.5-1.2a.8.8 0 0 0-.1-.8c-.4-.4-1.4-1.8-1.1-2.8a2.2 2.2 0 0 1 1.6-1 .8.8 0 0 0 .5-.7c-.1-1.2.1-4.4 1.6-5.3s1.8-.2 3.2.6h.6s1.8-.8 2.9-.1a3.3 3.3 0 0 1 1.1 2.9.6.6 0 0 0 .6.6c.6.1 2 .5 2.2 1.1s-.2 1.2-.6 1.7a3.2 3.2 0 0 0-.9 2.9 2.6 2.6 0 0 0 2 1.6c1.1.4 1.4.5 1.6 1.2a.6.6 0 0 0 .8.5.7.7 0 0 0 .5-.8 2.4 2.4 0 0 0-.9-1.4c.1-.8.3-2.2 1-2.5s.8-.2 1.6.1.1 0 .1.1a9.8 9.8 0 0 1 3.1 2.1.7.7 0 0 0 .6.1c.3 0 .4-.2.5-.4s1.7-4.1 3.4-4.3 2.8 1.2 3.7 2.5a.5.5 0 0 0 .4.3h.6c.3-.3.8-.5 1-.4s.1.1.1.6a3.1 3.1 0 0 1-1 2.8.7.7 0 0 0-.2.9.7.7 0 0 0 .6.3h.3c.1 0 1.8-1.1 1.7-3.9a1.9 1.9 0 0 0-1-1.9 2.2 2.2 0 0 0-1.8.2l-1.8-1.8a1.9 1.9 0 0 0 1.3-1.6c.1-.4-.1-1-1-1.6A11.1 11.1 0 0 0 30 8c1-1.6 2.4-4.2 1.9-6.1A2.1 2.1 0 0 0 30.6.3c-2.9-1.4-8.4 2.4-10.3 3.9-.8-1.3-2.4-3.4-3.8-3.5a1.6 1.6 0 0 0-1.1.5c-.5.3-1.8 1.5-1.8 5a5.1 5.1 0 0 0-2.7.4c-1.8-1-3.2-1.1-4.3-.5s-2.3 4.7-2.3 6a3.3 3.3 0 0 0-2 1.8 4.5 4.5 0 0 0 1.1 3.7 2.3 2.3 0 0 0-.4 1.9ZM16.1 2.3c.1 0 .3-.1.3-.2s2.2 1.8 3.2 3.5l.4.3a.7.7 0 0 0 .6-.2C23.2 3.6 28.1.6 30 1.5a1.2 1.2 0 0 1 .6.8C31 4 28.9 7.4 28 8.5a.8.8 0 0 0 .1 1 .8.8 0 0 0 1-.1c.2-.2 1.8 0 3.8 1.3l.4.3a3.4 3.4 0 0 1-1.5 1 2.9 2.9 0 0 0-1.3-.1c-2.1.3-3.5 2.9-4.1 4.3a13.1 13.1 0 0 0-2.6-1.6l-.9-1.8a3.3 3.3 0 0 1 3.2-1.1c.4 0 .8-.2.8-.6a.6.6 0 0 0-.5-.8 4.8 4.8 0 0 0-4 1.1c-.2-1.1-.2-2.2.6-2.7a12.7 12.7 0 0 1 2.2-1.4c1.1-.6 2.1-1.2 1.7-2.5a.6.6 0 0 0-.8-.5.7.7 0 0 0-.5.9c.1.2.1.2-1.1.9l-2.3 1.4a3.1 3.1 0 0 0-1 1.3l-2.9-1.6a.8.8 0 0 0-1 .2.8.8 0 0 0 .3 1l3.3 1.8a9.8 9.8 0 0 0 1.1 3.9l-1.2.2a3.8 3.8 0 0 0-1.7 3.1h-.3c-.4-.1-1-.3-1.1-.7a2.1 2.1 0 0 1 .7-1.7c.9-1.1 1.2-2.1.8-3s-1.9-1.6-2.8-1.8A4.2 4.2 0 0 0 15 6.9c-.2-3.7 1.1-4.6 1.1-4.6Z"/><path d="M5 15.5a.8.8 0 0 0 .5.9l3.5.9a10.5 10.5 0 0 0 2 2.7.1.1 0 0 0 .1.1h.9v-.2a30.5 30.5 0 0 0 2.1-6.3.8.8 0 0 0-.6-.8c-.4-.1-.7.2-.8.6a37.8 37.8 0 0 1-1.5 5 8.7 8.7 0 0 1-2-6.7.6.6 0 0 0-.6-.7.6.6 0 0 0-.7.6 9.9 9.9 0 0 0 .3 4.2l-2.4-.6a.8.8 0 0 0-.8.3Zm26.5.8a.7.7 0 1 0-.6-1.2c-2.1.9-1.1 4.4-1 4.8h.1v.2h.8a.1.1 0 0 0 .1-.1h.1a23.8 23.8 0 0 0 3-2.4.7.7 0 0 0-.1-1 .8.8 0 0 0-1 .1 9.8 9.8 0 0 1-1.9 1.8c-.1-.8-.1-1.9.5-2.2Z"/></g></g></symbol><symbol id="sprite-icon-video" viewBox="0 0 48 35.3"><title>icon-video</title><g data-name="Layer 2"><g data-name="Layer 1"><path d="m29.5 16.3-7.6-5.5a1.3 1.3 0 0 0-1-.4 1.7 1.7 0 0 0-1.7 1.8v11.1a1.7 1.7 0 0 0 1.7 1.8 1.3 1.3 0 0 0 1-.4l7.6-5.6a1.5 1.5 0 0 0 .7-1.3 1.8 1.8 0 0 0-.7-1.5Zm-.9 1.6-7.7 5.5s-.1 0-.1-.2v-11c0-.1 0-.2.1-.2h.1l7.6 5.5.5-.6Z" style="fill:#ebb454"/><path d="M43.9 2.3C42.4 1.2 38.8 0 24 0S5.7 1.4 4.8 2C.5 4.5.1 14.8 0 18s.7 12.9 4.8 15.4c.9.5 3.2 1.9 19.2 1.9s18.4-1.2 19.9-2.2c3.5-2.6 4.1-10.6 4.1-15.2S47.6 5 43.9 2.3Zm-1 29.5c-1.8 1.3-8.1 1.9-18.9 1.9S7.5 33.1 5.6 32s-3.9-8.4-4-14 1.2-13 4-14.7S13.7 1.6 24 1.6s17.1.7 18.9 2 3.5 8.6 3.5 14.3-1.3 12.3-3.5 13.9Z" style="fill:#ebb454"/></g></g></symbol><symbol id="sprite-menu-close" viewBox="0 0 16.1 16.1"><title>menu-close</title><g data-name="Layer 2"><path d="M16.1 1.6 9.7 8.1l6.4 6.4-1.6 1.6-6.4-6.4-6.5 6.4L0 14.5l6.4-6.4L0 1.6 1.6 0l6.5 6.4L14.5 0Z" style="fill:#979797" data-name="Layer 1"/></g></symbol><symbol id="sprite-menu-open" viewBox="0 0 31.7 21.8"><title>menu-open</title><g data-name="Layer 2"><path style="fill:#979797" d="M0 0h31.7v2.34H0zm0 9.8h31.7v2.34H0zm0 9.7h31.7v2.34H0z" data-name="Layer 1"/></g></symbol></svg>