<svg class="w-32" xmlns="http://www.w3.org/2000/svg" viewBox="0 0 153.2 19.6">
<g id="Layer_2" data-name="Layer 2">
<g id="Layer_1-2" data-name="Layer 1">
<g>
<g>
<path d="M9.8,0A9.7,9.7,0,0,0,0,9.7,9.8,9.8,0,1,0,9.8,0ZM9.7,18.9a9.1,9.1,0,1,1,9.2-9.1A9.1,9.1,0,0,1,9.7,18.9Z" style="fill: #979797"/>
<path d="M7.6,15.3H6.1a1.3,1.3,0,0,0,.2-.8V5.4a1.1,1.1,0,0,0-.2-.8H7.6Z" style="fill: #979797"/>
<path d="M13.7,12.2v3.1h-3a4.4,4.4,0,0,0,1.9-1.2A5.9,5.9,0,0,0,13.7,12.2Z" style="fill: #979797"/>
<path d="M10.4,4.6h2.8V7.4a6.2,6.2,0,0,0-1.1-1.7A4.2,4.2,0,0,0,10.4,4.6Z" style="fill: #979797"/>
<path d="M10.8,8v3.4A2.5,2.5,0,0,0,8.6,9.8,3.1,3.1,0,0,0,10.8,8Z" style="fill: #979797"/>
</g>
<g>
<path d="M30.7,6.6H28.2V6.1h5.5v.5H31.2v6.7h-.5Z" style="fill: #979797"/>
<path d="M39,6.1h.5V9.4H44V6.1h.6v7.2H44V9.9H39.5v3.4H39Z" style="fill: #979797"/>
<path d="M50.3,6.1h5.1v.5H50.9V9.4h4v.5h-4v2.9h4.6v.5H50.3Z" style="fill: #979797"/>
<path d="M66.6,6.1h5.2V7.3h-4V9.1h3.6v1.1H67.8v1.9h4.1v1.2H66.6Z" style="fill: #979797"/>
<path d="M76.2,6.1h1.4l2.2,5.5,2.1-5.5h1.3l-2.9,7.2H79.2Z" style="fill: #979797"/>
<path d="M87.9,6.1h5.3V7.3h-4V9.1h3.5v1.1H89.2v1.9h4v1.2H87.9Z" style="fill: #979797"/>
<path d="M98.4,6.1h3.2a2.5,2.5,0,0,1,2,.8,1.9,1.9,0,0,1,.6,1.5h0a2.2,2.2,0,0,1-1.7,2.2l1.9,2.7H103l-1.8-2.5H99.6v2.5H98.4Zm3.1,3.6c.9,0,1.4-.5,1.4-1.2h0c0-.8-.5-1.2-1.4-1.2H99.6V9.7Z" style="fill: #979797"/>
<path d="M111,10.5l-2.8-4.4h1.5l2,3.2,2-3.2h1.4l-2.8,4.3v2.9H111Z" style="fill: #979797"/>
<path d="M119,9.7h0A3.6,3.6,0,0,1,122.6,6a4.1,4.1,0,0,1,2.8,1l-.8.9a3.2,3.2,0,0,0-2-.7,2.4,2.4,0,0,0-2.3,2.5h0a2.3,2.3,0,0,0,2.4,2.5,2.9,2.9,0,0,0,1.7-.5V10.4h-1.8V9.3h3v3a4.5,4.5,0,0,1-2.9,1.1A3.5,3.5,0,0,1,119,9.7Z" style="fill: #979797"/>
<path d="M131,6.1h1.2v7.2H131Z" style="fill: #979797"/>
<path d="M137.4,6.1h3.2a2.5,2.5,0,0,1,2,.8,1.9,1.9,0,0,1,.6,1.5h0a2.2,2.2,0,0,1-1.7,2.2l1.9,2.7H142l-1.8-2.5h-1.6v2.5h-1.2Zm3.1,3.6c.9,0,1.4-.5,1.4-1.2h0c0-.8-.5-1.2-1.4-1.2h-1.9V9.7Z" style="fill: #979797"/>
<path d="M148.2,6.1h1.2v6h3.8v1.2h-5Z" style="fill: #979797"/>
</g>
</g>
</g>
</g>
<title>The Every Girl</title></svg>