<svg class="w-32" xmlns="http://www.w3.org/2000/svg" viewBox="0 0 111.3 35.6">
<g id="Layer_2" data-name="Layer 2">
<g id="Layer_1-2" data-name="Layer 1">
<g id="_0R1i1r.tif" data-name="0R1i1r.tif">
<g>
<path d="M64.6,25.2c-1.1,2.1-2.1,4.2-3.3,6.3a7.5,7.5,0,0,1-3.2,3.4,4,4,0,0,1-5.7-2.2c-.2-.6-.3-1.3-.5-2a9.7,9.7,0,0,1-6.5-3.2c-.7-.7-.7-.7-1.6-.4a6.8,6.8,0,0,1-4.2.4,3.6,3.6,0,0,1-2.4-5c.4-1.1,1-2.2,1.5-3.3a3.6,3.6,0,0,0,.4-1.1c.1-.4,0-.7-.4-.8L36.9,17l-2.1-.3a16.4,16.4,0,0,1-.2,2.2,20.1,20.1,0,0,1-2.5,7.6,11.2,11.2,0,0,1-1.7,2c-1.8,1.5-3.9,1.2-5.5-.5l-.6-.7-1.2,1.5a13.7,13.7,0,0,1-2.2,2A4.1,4.1,0,0,1,14.2,28a12.3,12.3,0,0,1,.3-4.7,1.4,1.4,0,0,1,.2-.6c.3-.8.6-.9,1.2-.7a1.1,1.1,0,0,1,.9,1.5,11.1,11.1,0,0,0,0,6c0,.1.1.2.1.4l1.6-.8A14.5,14.5,0,0,0,23,23.5,20.5,20.5,0,0,0,24.6,18c.1-.8.4-.9,1.2-.7a2.5,2.5,0,0,1,1.6,3c-.3,1.2-.7,2.4-1.1,3.6a4.5,4.5,0,0,0,0,2.8c.2.6.4.7,1,.3a6.9,6.9,0,0,0,2.2-2.3,17.9,17.9,0,0,0,2.8-8.4,4.6,4.6,0,0,0-.8-2.8c-.1-.3-.4-.5,0-.7s.6-.5.9,0A7.3,7.3,0,0,0,37.6,15a4.8,4.8,0,0,1,4.2,3.4,2.6,2.6,0,0,1-.2,1.5c-.6,1.6-1.3,3.1-2,4.7s-.2.7.4.7a6.6,6.6,0,0,0,3.1-.6c.3-.1.4-.3.3-.7A6.5,6.5,0,0,1,46,17.5a3.7,3.7,0,0,1,2.5-.7,1.3,1.3,0,0,1,1.4.9l.9,1.7a1.8,1.8,0,0,1-.2,2.3,21.6,21.6,0,0,1-4.1,3.9L46,26a4.8,4.8,0,0,0,2.4,1.8l3.1,1c.3.1.5,0,.5-.3,1.2-7.4,3.9-14.1,7.1-20.7,1.2-2.5,2.6-4.7,4-7.1.5-.8.6-.8,1.6-.5L66,.7l-.5,1.1a105,105,0,0,0-9.3,20.5,24,24,0,0,0-1.5,8.4,5.5,5.5,0,0,0,.2,1.8c.2,1,.7,1.1,1.4.4a21,21,0,0,0,3.6-5.2,48,48,0,0,0,5-14.8c.3-1.6.9-1.9,2.3-1s1,.7.8,1.8-.9,4.7-1.1,7.1a25.9,25.9,0,0,0,.5,4.7,1.5,1.5,0,0,0,.3.7c.2.5.5.7,1,.5a7.5,7.5,0,0,0,2.9-2.4,18.3,18.3,0,0,0,3.1-7.6c.6-2.7.9-5.4,1.3-8.2,0-.3-.2-.7-.2-1.1s-.1-.4,0-.5h.5a3.6,3.6,0,0,1,2.3,3c-.5,5-1.3,10-3.6,14.6a8.4,8.4,0,0,1-3.2,3.8,5.2,5.2,0,0,1-7-2.6C64.7,25.4,64.6,25.3,64.6,25.2Zm-16-5.6c-1,.2-2.4,2-2.5,3.3A9,9,0,0,0,48.6,19.6Z" style="fill: #979797"/>
<path d="M11.1,17.9c-.1,1.5-.3,3.1-.4,4.6-.3,3.8-.5,7.5-.8,11.3,0,.3.1.6.1.9s-.4,1-1,.9a2.3,2.3,0,0,1-2-2.4c.3-5.1.7-10.2,1-15.3.1-.4-.1-.5-.4-.6a2.7,2.7,0,0,1-1.9-1.8V14.4l2.6.9a19.3,19.3,0,0,1,.4-2.7c.3-2.1.6-4.2,1-6.2s.4-.9,1-.6A6.1,6.1,0,0,1,12.3,7c.2.1.2.5.2.7s-.5,3-.8,4.5-.2,2-.4,3.2l1.9-.3a26.3,26.3,0,0,0,10.9-3.8,13.9,13.9,0,0,0,2.7-2.1c1.5-1.5,1.5-3-.1-4.4a9.9,9.9,0,0,0-6.3-2.6,19.9,19.9,0,0,0-13,4,15.3,15.3,0,0,0-5.1,6.9c-.8,2-.5,2.8,1.1,4a1.1,1.1,0,0,1-1.5.3A3.5,3.5,0,0,1,0,14,11.2,11.2,0,0,1,3.3,6.9,20.8,20.8,0,0,1,17.8.4a15.3,15.3,0,0,1,7.3,1.3,7.7,7.7,0,0,1,4.4,4.9,4.6,4.6,0,0,1-.9,4.5,16.4,16.4,0,0,1-5.5,3.8,32.5,32.5,0,0,1-11.5,2.9Z" style="fill: #979797"/>
<path d="M91.2,25a10.5,10.5,0,0,0,1.9-1.7l4.7-5.7.2-.3c.6-.9.7-.9,1.4-.2l1.2,1.3a.9.9,0,0,1,.1.7,22.9,22.9,0,0,0-.9,2.8c-.2.9.2,1.2,1.1,1.1a3.4,3.4,0,0,0,2.2-1.3c1.2-1.3,2.1-4.3.8-6.2a9.8,9.8,0,0,0-1.8-1.7c-.4-.2-.4-.4-.3-.8s.8-1,1.6-.6l1.2.8a1.6,1.6,0,0,1,.5.9c.2.3.2.8.5,1.1a6.6,6.6,0,0,1-2.8,10,7.1,7.1,0,0,1-2.5.2,2.8,2.8,0,0,1-2.4-2.1c-.1-.1-.1-.3-.2-.5a17.9,17.9,0,0,1-2.2,2.5A10.6,10.6,0,0,1,92.9,27a3.7,3.7,0,0,1-4.2-1.6,3,3,0,0,1-.1-2.3c.5-1.4,1-2.7,1.6-4.1s.6-1.3.8-2.1a11.1,11.1,0,0,1-5,1.4l.2.5a7.2,7.2,0,0,1-.8,7.8c-1.6,2.3-6,1.8-7.2-.7a3.1,3.1,0,0,1-.3-2.3,11.6,11.6,0,0,1,2.1-5l1.5-1.5a1.9,1.9,0,0,1-.7-.6c-.2-.2-.5-.6-.4-.8s.5-.8,1-.6L84,16.2a1.3,1.3,0,0,0,1.2.1c1.8-.7,3.7-1.3,5.5-2.1a2.4,2.4,0,0,1,2.8.6,2,2,0,0,1,.5,2.4c-.2.6-.5,1.2-.7,1.9s-1.3,3.1-2,4.6L91,24.8Zm-10.7-.2.5,1.5,1.5-.5.3-.3c.3-.5.8-1,1.1-1.6a8.6,8.6,0,0,0,.3-3.9c-.1-1-.7-1.2-1.4-.6l-.7.7A9.8,9.8,0,0,0,80.5,24.8Z" style="fill: #979797"/>
<path d="M110,21.7a1.4,1.4,0,0,1,1.2.8,1.1,1.1,0,0,1-.3,1.4l-1.2,1.3a.9.9,0,0,1-1.3,0c-1.1-.8-1.2-1.2-.3-2.4A2.2,2.2,0,0,1,110,21.7Z" style="fill: #979797"/>
</g>
</g>
</g>
</g>
<title>Pure Wow</title></svg>