<svg class="w-32" xmlns="http://www.w3.org/2000/svg" viewBox="0 0 144 21">
<g id="Layer_2" data-name="Layer 2">
<g id="Layer_1-2" data-name="Layer 1">
<g>
<path d="M117,15.6a24.1,24.1,0,0,1,0,3.8,1.1,1.1,0,0,1-.9.7,10,10,0,0,1-14.2-7.2A10.7,10.7,0,0,1,109.5.3a10.6,10.6,0,0,1,6.8.7.7.7,0,0,1,.6.7V5.4c-3.8-2.2-7.3-2.7-10.1,1.1a7.1,7.1,0,0,0,.3,8.3C110,18.5,113.4,17.7,117,15.6Z" style="fill: #979797"/>
<path d="M66.8,20.8H62.9V4.1c-1.5-.3-2.8,0-4.2-.3V.4H70.9V3.8c-1.3.3-2.7,0-4.1.2Z" style="fill: #979797"/>
<path d="M87.9,5.7V7.8c-.1.7.2.9.9.9h4.1c.7,0,1,.2,1,1a7.4,7.4,0,0,0,0,2.1c0,.7-.3.9-.9.9H88.9c-.8,0-1.1.2-1,1v4.1a.8.8,0,0,1-.9.9H84.8c-.7,0-.9-.3-.9-.9V13.7c0-.7-.3-1-1-1h-4c-.7,0-1-.3-1-1v-2c0-.7.2-1,.9-1h4.1c.7,0,1-.2,1-.9v-4c0-.8.3-1.1,1.1-1.1C87.9,2.7,87.9,2.6,87.9,5.7Z" style="fill: #979797"/>
<path d="M46.1.3h3.7V20.8H46.1Z" style="fill: #979797"/>
<path d="M13.4,11.6a5.2,5.2,0,0,0-2.7-1.9c0-.3.3-.3.4-.5a4.6,4.6,0,0,0,1.5-5.1C12.1,2,10.8.5,8.7.4S3,.4.1.4C-.1,1.4,0,20,.2,20.8c3.2,0,6.5.4,9.7-.1A5.7,5.7,0,0,0,13.4,11.6Zm-9.5-8a16.9,16.9,0,0,1,3.2.1A2,2,0,0,1,8.8,6,2.3,2.3,0,0,1,7,8.5a10.7,10.7,0,0,1-3.1,0ZM10.5,15a2.6,2.6,0,0,1-2.6,2.6h-4V11.9a16.2,16.2,0,0,1,4.4,0A2.8,2.8,0,0,1,10.5,15Z" style="fill: #979797"/>
<path d="M133.5,0a10.3,10.3,0,0,0-10.4,10.4,10.2,10.2,0,0,0,10.2,10.5A10.6,10.6,0,0,0,144,10.5,10.6,10.6,0,0,0,133.5,0Zm-.1,17.2a6.4,6.4,0,0,1-6.5-6.7,6.6,6.6,0,1,1,13.1,0A6.6,6.6,0,0,1,133.4,17.2Z" style="fill: #979797"/>
<path d="M31.4,12.3a1.8,1.8,0,0,1,1-.4,5.7,5.7,0,0,0,3.7-6.5A5.7,5.7,0,0,0,31,.4a65.9,65.9,0,0,0-7.7,0h-.2V20.8h3.7V12.4a2.2,2.2,0,0,1,.8.9l4.8,6.9c.2.3.4.6.8.6h4.5C35.5,17.9,33.4,15.1,31.4,12.3ZM26.9,9.6V3.7c1.8-.6,4-.1,4.8.9a3.7,3.7,0,0,1,0,3.8C30.8,9.7,29,10.1,26.9,9.6Z" style="fill: #979797"/>
</g>
</g>
</g>
<title>Brit + Co</title></svg>