<svg class="w-32" xmlns="http://www.w3.org/2000/svg" viewBox="0 0 130.2 23.1">
<g id="Layer_2" data-name="Layer 2">
<g id="Layer_1-2" data-name="Layer 1">
<g>
<path d="M0,0H11a5.7,5.7,0,0,1,5.5,4.6c.5,3-1,5.5-3.4,6.2l-.2.2a5,5,0,0,1,4,4.3c.7,3.7-1.4,6.8-5.2,7.2H0ZM4.9,18.3H9.6a2.6,2.6,0,0,0,2.6-2.5,2.5,2.5,0,0,0-2.4-2.6H4.9ZM4.8,9H9.7c1-.2,1.7-.6,1.9-1.6A2.4,2.4,0,0,0,9.4,4.2H4.9c0,.2-.1.3-.1.4Z" style="fill: #979797"/>
<path d="M87.4,23.1l-1.7-.4c-4.5-1-6.7-4.8-6.3-9.1a7.9,7.9,0,0,1,5.5-7.3c4.7-1.6,10.2.6,11,6.9a21.7,21.7,0,0,1,.1,2.6H83.8A4,4,0,0,0,86.3,19c2.2,1,4.2.5,6.2-.8l.3-.2h.1l2,2.8L93,21.9A12.1,12.1,0,0,1,89.3,23H87.4Zm4.4-10.3c.1-2-1.8-3.6-4.3-3.5s-3.8,1.8-3.6,3.5Z" style="fill: #979797"/>
<path d="M104.9,23.1l-2.1-.5a8,8,0,0,1-5.9-7.1,8.9,8.9,0,0,1,3.3-8c3.9-3.1,11.6-2.4,13.1,4.9a8.8,8.8,0,0,1,.2,1.6,10.8,10.8,0,0,1,0,1.8H101.4a4.8,4.8,0,0,0,1,2.3,5.5,5.5,0,0,0,4.9,1.3,6.4,6.4,0,0,0,3.1-1.5l2,2.9-1.5,1a9.2,9.2,0,0,1-4,1.1l-.5.2Zm-3.5-10.3h8c.1-1.9-1.8-3.5-4.2-3.5S101.3,11,101.4,12.8Z" style="fill: #979797"/>
<path d="M24.6,23.1,23,22.7a6.1,6.1,0,0,1-5-6.4V6.3h4.3v9.5A3,3,0,0,0,24,18.9a3.8,3.8,0,0,0,4-.3,3.1,3.1,0,0,0,1.2-2.8c.1-3,.1-5.9.1-8.9V6.3h4.2v9.9c0,3.8-2.3,6.3-6.1,6.7l-.5.2Z" style="fill: #979797"/>
<path d="M65.3,22.6V0H81V3.7c.1.4-.1.5-.6.5H70.2V9h7.6c.4,0,.5.1.5.6v3.6H70.1v9.4Z" style="fill: #979797"/>
<path d="M114.6,22.6V6.8c0-.6,0-.6.7-.6,2.4,0,4.8-.1,7.1.1s6,1.8,7.2,5.1a8.4,8.4,0,0,1-2.2,9.3,8.9,8.9,0,0,1-5.2,1.9h-7.6Zm4.1-3.5h2.4a4.5,4.5,0,0,0,4.9-4.3,4.6,4.6,0,0,0-2.6-4.7c-1.5-.6-3.1-.3-4.7-.4Z" style="fill: #979797"/>
<path d="M42.2,10H34.9V6.3H48.1V8.4a1.9,1.9,0,0,1-.5,1.6L41,18.3l-.4.5h7.6v3.8H34.9c0-1.1-.1-2.1,0-3.1a.9.9,0,0,1,.3-.5c2.2-2.9,4.5-5.7,6.7-8.5Z" style="fill: #979797"/>
<path d="M49.4,10V6.3H62.6V9.2c0,.2-.2.3-.3.5l-6.8,8.6-.4.5h7.1c.4,0,.6.1.6.6s0,2.1,0,3.2H49.4V19.4c0-.1.2-.2.2-.4l6.6-8.3.6-.7Z" style="fill: #979797"/>
</g>
</g>
</g>
<title>Buzzfeed</title></svg>