<svg class="w-32" xmlns="http://www.w3.org/2000/svg" xmlns:xlink="http://www.w3.org/1999/xlink" viewBox="0 0 132.8 32.7">
<defs>
<mask id="mask" x="117.01" y="12.31" width="15.8" height="18.16" maskUnits="userSpaceOnUse">
<g id="b">
<path id="a" d="M132.8,30.5V12.3H117V30.5Z" style="fill: #fff"/>
</g>
</mask>
<mask id="mask-2" x="0" y="0" width="31.84" height="32.66" maskUnits="userSpaceOnUse">
<g id="d">
<path id="c" d="M31.8,0H0V32.7H31.8Z" style="fill: #fff"/>
</g>
</mask>
</defs>
<g id="Layer_2" data-name="Layer 2">
<g id="Layer_1-2" data-name="Layer 1">
<g>
<path id="logo_icon" data-name="logo  icon" d="M46.3,21c-.4-.4-.1-.7,0-.7h0l8-6.4c.3-.3.3-1.1-.4-1.1H51.5a1.8,1.8,0,0,0-1.1.5l-6.8,5.6h-.2c-.4.3-.5-.4-.5-.4V5.6a.9.9,0,0,0-.8-.8H40.7a.9.9,0,0,0-.8.8v24a.9.9,0,0,0,.8.9h1.4a.9.9,0,0,0,.8-.9V22.1s.1-.5.5-.1l8.5,8.1a1.3,1.3,0,0,0,.9.4h2.4a.6.6,0,0,0,.4-1.1L46.3,21ZM59.9,4.7a2.1,2.1,0,0,0-2,2.2,2.1,2.1,0,1,0,4.1,0,2.1,2.1,0,0,0-2.1-2.2m.8,8.1H59.3a.9.9,0,0,0-.8.8v16a.9.9,0,0,0,.8.9h1.4a.9.9,0,0,0,.8-.9v-16a.8.8,0,0,0-.8-.8M76.4,27.2c-.2-.4-.4-.6-1-.3A4,4,0,0,1,72.6,28c-1.7,0-1.9-2.1-1.9-2.2V16a.6.6,0,0,1,.6-.6h4.5a.9.9,0,0,0,.9-.8v-1a.8.8,0,0,0-.9-.8H71.4c-.6,0-.7-.4-.7-.6V7.5a.9.9,0,0,0-.8-.8H68.5a.9.9,0,0,0-.8.8v4.7a.8.8,0,0,1-.6.6H65.4a.7.7,0,0,0-.8.8v1a.8.8,0,0,0,.8.8h1.7a.6.6,0,0,1,.5.5V26c0,2.8,1.6,4.9,5.1,4.9a7,7,0,0,0,4.1-1.5c.5-.3.6-.6.3-1.1l-.7-1.1ZM94,26l-.5-.4c-.4-.4-.7-.4-1.3.1s-2,2.3-4.7,2.3-5.8-2.8-5.8-6.4a6.1,6.1,0,0,1,5.9-6.3,5.3,5.3,0,0,1,4,1.9c.4.3.7.8,1.3.2l.9-.8a.8.8,0,0,0,.1-1.2,7.5,7.5,0,0,0-6.3-3.1,9.3,9.3,0,0,0-9.1,9.4,9.1,9.1,0,0,0,9.1,9.2,7.8,7.8,0,0,0,6.7-3.7A.8.8,0,0,0,94,26m11.3-13.7a6.7,6.7,0,0,0-4.8,1.9h0s-.4.4-.4-.2V5.6a.9.9,0,0,0-.9-.8H97.9a.9.9,0,0,0-.9.8v24a.9.9,0,0,0,.9.9h1.3a.9.9,0,0,0,.9-.9V19.9a4.3,4.3,0,0,1,4-4.5h1c2.5,0,4.7,1.6,4.7,5v9.3a.9.9,0,0,0,.8.9H112a.9.9,0,0,0,.8-.9V20.3c0-5.2-3.1-8-7.5-8" style="fill: #979797"/>
<g style="mask: url(#mask)">
<path d="M125.3,12.3a7.3,7.3,0,0,0-4.9,1.9h0s-.3.4-.3-.2v-.4a.9.9,0,0,0-.9-.9h-1.4a.9.9,0,0,0-.8.9v16a.9.9,0,0,0,.8.9h1.4a.9.9,0,0,0,.9-.9V19.9a4.3,4.3,0,0,1,4-4.5h1c2.5,0,4.6,1.6,4.6,5v9.3a.9.9,0,0,0,.9.9H132a.9.9,0,0,0,.8-.9V20.3c0-5.2-3.1-8-7.5-8" style="fill: #979797"/>
</g>
<g style="mask: url(#mask-2)">
<path d="M19.2,15.5a3.2,3.2,0,0,1-2.1.8,2.1,2.1,0,0,1-1.2-.4,2.6,2.6,0,0,1,.3-3.6,2.3,2.3,0,0,1,1.6-.6,2.5,2.5,0,0,1,1.6.7c.3.4,1.3,1.5-.2,3.1m2.3-5.2a5,5,0,0,0-3.7-1.6,5.1,5.1,0,0,0-3.6,1.5A5.9,5.9,0,0,0,12.4,14a4.5,4.5,0,0,0,1.4,3.9,4.7,4.7,0,0,0,3.4,1.3,5.7,5.7,0,0,0,4.1-1.7c2.3-2.3,2.3-5,.2-7.2M24.7,15a7.5,7.5,0,0,1-2.3,5.2A9.3,9.3,0,0,1,16,22.8a7.3,7.3,0,0,1-5-1.9,6.7,6.7,0,0,1-2-5.5,9.4,9.4,0,0,1,2.8-5.7,7.9,7.9,0,0,1,5.5-2.2,7.1,7.1,0,0,1,5.1,1.9A7.3,7.3,0,0,1,24.7,15m-.2-7.7a9.4,9.4,0,0,0-7.2-2.7,11.4,11.4,0,0,0-4.1.7A9.7,9.7,0,0,0,9.6,7.6,12.9,12.9,0,0,0,6,15.3,9.4,9.4,0,0,0,9,23a10.3,10.3,0,0,0,7,2.7,12.7,12.7,0,0,0,4.7-.9,10.3,10.3,0,0,0,3.8-2.6,9.9,9.9,0,0,0,3.1-7.1,10.1,10.1,0,0,0-3.1-7.8M28.1,20a14.2,14.2,0,0,1-2.8,4.6A16.8,16.8,0,0,1,20,28.3a21.1,21.1,0,0,1-6.3,1.4,9.4,9.4,0,0,1-7.6-3.2,13.6,13.6,0,0,1-3.2-9,16.8,16.8,0,0,1,1-5.5A15.4,15.4,0,0,1,7.3,7.1,13.9,13.9,0,0,1,17.7,3a11,11,0,0,1,7.9,2.9c1.9,1.8,3.2,5.3,3.3,8.8a18.9,18.9,0,0,1-.8,5.3m3.7-5.4c-.1-4.4-1.6-8.4-4.2-10.9A14.9,14.9,0,0,0,17.6,0a17.9,17.9,0,0,0-6.8,1.3A18.6,18.6,0,0,0,5.2,4.9,16.5,16.5,0,0,0,0,17.5,17.1,17.1,0,0,0,4,28.6a12.6,12.6,0,0,0,9.7,4.1,20.8,20.8,0,0,0,13.7-6A14.4,14.4,0,0,0,30.8,21a17.2,17.2,0,0,0,1-6.4" style="fill: #979797"/>
</g>
</g>
</g>
</g>
<title>Kitchn</title></svg>