<svg class="w-32" xmlns="http://www.w3.org/2000/svg" viewBox="0 0 164.9 13.3">
<g id="Layer_2" data-name="Layer 2">
<g id="Layer_1-2" data-name="Layer 1">
<g>
<path id="p" d="M8.1,7.4a5.1,5.1,0,0,1-3.4,1H3.1v4.8H0V.1H4.7a4.6,4.6,0,0,1,3.4,1A3.7,3.7,0,0,1,9.5,4.2,4,4,0,0,1,8.1,7.4ZM5.7,2.8a2.6,2.6,0,0,0-1.4-.3H3.1V6H4.3a2,2,0,0,0,1.4-.4,1.5,1.5,0,0,0,.7-1.4A1.7,1.7,0,0,0,5.7,2.8Z" style="fill: #979797"/>
<path d="M25.7.1c-3.7,0-6.5,2.4-6.5,6.6a6.2,6.2,0,0,0,6.5,6.6,6.2,6.2,0,0,0,6.5-6.6C32.2,2.5,29.4.1,25.7.1Zm0,10.5c-2.1,0-3.5-1.5-3.5-3.9s1.4-4.1,3.5-4.1,3.6,1.6,3.6,4.1S27.8,10.6,25.7,10.6Z" style="fill: #979797"/>
<path id="p-2" data-name="p" d="M50.1,7.4a5.5,5.5,0,0,1-3.4,1H45.1v4.8H42V.1h4.7a4.9,4.9,0,0,1,3.4,1,3.7,3.7,0,0,1,1.4,3.1A4,4,0,0,1,50.1,7.4ZM47.7,2.8a3.1,3.1,0,0,0-1.5-.3H45V6h1.2a2.2,2.2,0,0,0,1.5-.4c.4-.2.6-.7.6-1.4A1.7,1.7,0,0,0,47.7,2.8Z" style="fill: #979797"/>
<path d="M69,12.2a5.6,5.6,0,0,1-3.5,1,7.4,7.4,0,0,1-4.6-1.9l1.5-2.2a5.3,5.3,0,0,0,3.4,1.6c1,0,1.7-.5,1.7-1.3S66.6,8.2,66,8l-2-.7a6.3,6.3,0,0,1-1.5-1,3.2,3.2,0,0,1-1-2.5A3.5,3.5,0,0,1,62.9,1a5.2,5.2,0,0,1,3.3-1,6.1,6.1,0,0,1,4.1,1.6L69,3.7a4.1,4.1,0,0,0-2.8-1.3c-1,0-1.7.4-1.7,1.1s.7,1.1,1.3,1.3l1.9.8a4.1,4.1,0,0,1,1.8,1,3.4,3.4,0,0,1,1,2.5A4.2,4.2,0,0,1,69,12.2Z" style="fill: #979797"/>
<path d="M90.9,7.6a5.8,5.8,0,0,1-1.2,4.1,5.4,5.4,0,0,1-4.2,1.6,5.8,5.8,0,0,1-4.3-1.6A5.8,5.8,0,0,1,80,7.6V0h3.1V7.6a3.6,3.6,0,0,0,.5,2.2,2.3,2.3,0,0,0,1.9.8,2.2,2.2,0,0,0,1.8-.8,3.2,3.2,0,0,0,.5-2.2V0h3.1V7.6Z" style="fill: #979797"/>
<path d="M112.8,11a7.6,7.6,0,0,1-5.7,2.2c-3.6,0-6.7-2.3-6.7-6.6S103.5,0,107.1,0a6.4,6.4,0,0,1,5.3,2.3l-2,1.7a4.1,4.1,0,0,0-3.3-1.5c-2,0-3.6,1.5-3.6,4.1s1.6,4.1,3.7,4.1,2.6-.8,2.6-.8V8h-2.7V5.7h5.7V11Z" style="fill: #979797"/>
<path d="M135.4,13.2H132l-.9-2.6h-4.7l-.9,2.6h-3.2L127.2.1h3.2Zm-5-5-1.7-4.7-1.6,4.7Z" style="fill: #979797"/>
<path d="M155.2,13.2h-3.5l-2.8-5h-1v5h-3.1V.1h4.8A5.7,5.7,0,0,1,153,1a3.7,3.7,0,0,1,1.5,3,3.7,3.7,0,0,1-2.6,3.8ZM150.7,2.8a2.6,2.6,0,0,0-1.6-.3h-1.2V5.8h1.2a2.6,2.6,0,0,0,1.6-.3,1.6,1.6,0,0,0,.7-1.3A1.6,1.6,0,0,0,150.7,2.8Z" style="fill: #979797"/>
<circle cx="162.5" cy="10.9" r="2.4" style="fill: #979797"/>
</g>
</g>
</g>
<title>Popsugar</title></svg>