<svg xmlns="http://www.w3.org/2000/svg" viewBox="0 0 152 35">
  <g id="Layer_2" data-name="Layer 2">
    <g id="Layer_1-2" data-name="Layer 1">
      <g>
        <path d="M52.9,25.6a3.4,3.4,0,0,0,1.3-2.3h6.6a9.7,9.7,0,0,1-3.4,6.6,10.6,10.6,0,0,1-7.3,2.5A11.2,11.2,0,0,1,42,29.3a10.7,10.7,0,0,1-3.2-7.9A10.6,10.6,0,0,1,42,13.6a11.7,11.7,0,0,1,8.1-3.1,10.7,10.7,0,0,1,7.3,2.6,9.3,9.3,0,0,1,3.4,6.5H54.2a3.6,3.6,0,0,0-1.3-2.3,4.4,4.4,0,0,0-2.7-.9,4.7,4.7,0,0,0-3.5,1.4,5.7,5.7,0,0,0-1.3,3.6,5.7,5.7,0,0,0,1.3,3.7,4.3,4.3,0,0,0,3.5,1.4A4.4,4.4,0,0,0,52.9,25.6Z" style="fill: #273242"/>
        <path d="M69.7,1.5V31.9h-7V1.5Z" style="fill: #273242"/>
        <path d="M94.6,11.1V31.9h-7V30.7a9.2,9.2,0,0,1-5.7,1.7,9.6,9.6,0,0,1-7.2-3.2,10.6,10.6,0,0,1-3.1-7.8,10.5,10.5,0,0,1,3.1-7.7,9.6,9.6,0,0,1,7.2-3.2,9.8,9.8,0,0,1,5.7,1.7V11.1Zm-7,13.6V18.2a5.4,5.4,0,0,0-4.2-1.8,4.9,4.9,0,0,0-3.6,1.5,4.8,4.8,0,0,0-1.4,3.5,5,5,0,0,0,5,5.1A5.4,5.4,0,0,0,87.6,24.7Z" style="fill: #273242"/>
        <path d="M111.7,17.7c-3.1.1-5.5,1-7.1,2.6V31.9h-7V11.1h7v2.6a9.9,9.9,0,0,1,7.1-2.6Z" style="fill: #273242"/>
        <path d="M114.6,6.7a3.5,3.5,0,0,1-1.2-2.8,3.8,3.8,0,0,1,1.2-2.8A4.2,4.2,0,0,1,117.5,0a4.1,4.1,0,0,1,2.8,1.1,3.8,3.8,0,0,1,1.2,2.8,3.5,3.5,0,0,1-1.2,2.8,3.7,3.7,0,0,1-2.8,1.1A3.8,3.8,0,0,1,114.6,6.7Zm6.4,4.4V31.9h-6.9V11.1Z" style="fill: #273242"/>
        <path d="M142.1,31.4a14,14,0,0,1-5.6,1,8.6,8.6,0,0,1-6.6-2.5,9.6,9.6,0,0,1-2.4-6.8V17h-4.1V11.1h4.1V4h6.9v7.1h7.1V17h-7.1v5.9c0,2.1,1.1,3.1,3.2,3.1a12.4,12.4,0,0,0,3.7-.8Z" style="fill: #273242"/>
        <path d="M145,6.7a3.4,3.4,0,0,1-1.1-2.8A3.7,3.7,0,0,1,145,1.1a4.4,4.4,0,0,1,5.8,0A3.8,3.8,0,0,1,152,3.9a3.5,3.5,0,0,1-1.2,2.8,4.4,4.4,0,0,1-5.8,0Zm6.4,4.4V31.9h-6.9V11.1Z" style="fill: #273242"/>
      </g>
      <rect y="3.9" width="31.1" height="31.14" rx="4.6" style="fill: #1b96eb"/>
      <path d="M18.2,22.9A2.9,2.9,0,0,0,19.3,21h5.5A7.6,7.6,0,0,1,22,26.5a9.2,9.2,0,0,1-6.1,2.1A9.3,9.3,0,0,1,9,26a8.7,8.7,0,0,1-2.7-6.6A9,9,0,0,1,9,12.8a9.7,9.7,0,0,1,6.9-2.6A9.2,9.2,0,0,1,22,12.3a8,8,0,0,1,2.8,5.6H19.3a3.1,3.1,0,0,0-1.1-2,3.7,3.7,0,0,0-2.3-.7A3.7,3.7,0,0,0,13,16.4a4.4,4.4,0,0,0-1.1,3A4.7,4.7,0,0,0,13,22.5a3.7,3.7,0,0,0,2.9,1.2A3.2,3.2,0,0,0,18.2,22.9Z" style="fill: #fff"/>
    </g>
  </g>
</svg>
