<svg class="w-48 sm:w-56 md:mr-6" xmlns="http://www.w3.org/2000/svg" viewBox="0 0 388.7 87">
<g id="Layer_2" data-name="Layer 2">
<g id="Layer_1-2" data-name="Layer 1">
<g>
<g>
<path d="M20,19.4A20.6,20.6,0,0,0,8.9,23.2V20.5a1,1,0,0,0-1.1-1.1H2.9l-.7.4a.8.8,0,0,0-.3.7v.5a1.1,1.1,0,0,0,.3.7.9.9,0,0,0,.7.3h.8a6.7,6.7,0,0,1,2.1.2H6V67H5.9a9.1,9.1,0,0,1-3.6.5H1a1.1,1.1,0,0,0-.7.3.8.8,0,0,0-.3.7v.5a1.1,1.1,0,0,0,.3.7,1.1,1.1,0,0,0,.7.3H15.1a1.1,1.1,0,0,0,.7-.3,1.1,1.1,0,0,0,.3-.8v-.4a1.1,1.1,0,0,0-.3-.8,1.1,1.1,0,0,0-.7-.3H12.7a8.1,8.1,0,0,1-3.6-.4H8.9V49.5A14.5,14.5,0,0,0,13,53.2a13.9,13.9,0,0,0,6.7,1.7,14.2,14.2,0,0,0,11-5.1,19.4,19.4,0,0,0,4.2-12.7,19.3,19.3,0,0,0-4.2-12.6A13.6,13.6,0,0,0,20,19.4Zm-.3,32.8a10.7,10.7,0,0,1-6.8-2.3,12.9,12.9,0,0,1-4-6.2V26.5c3.7-2.8,7.5-4.4,11.1-4.4a11,11,0,0,1,8.6,4.1A17.7,17.7,0,0,1,32,37.1,16.7,16.7,0,0,1,28.5,48,11,11,0,0,1,19.7,52.2Z" style="fill: #734060"/>
<path d="M46.5,12a2.4,2.4,0,0,0,1.7-.7,2.4,2.4,0,0,0,.7-1.6,2.2,2.2,0,0,0-.7-1.6,2.2,2.2,0,0,0-1.7-.7,2.4,2.4,0,0,0-2.3,2.3A2.4,2.4,0,0,0,46.5,12Z" style="fill: #734060"/>
<path d="M53,52.2H51.9a9.2,9.2,0,0,1-3.6-.4h-.2V20.4a1.1,1.1,0,0,0-.3-.7,1.1,1.1,0,0,0-.8-.3H42.1a.8.8,0,0,0-.7.3,1.1,1.1,0,0,0-.3.7V21a1.1,1.1,0,0,0,.3.8,1.5,1.5,0,0,0,.7.3h.8a4.5,4.5,0,0,1,2.1.2h.2V51.5h-.1a10.1,10.1,0,0,1-3.6.4H40.2a.9.9,0,0,0-.7.3,1.1,1.1,0,0,0-.3.7v.5a.8.8,0,0,0,.3.7.9.9,0,0,0,.7.3H53a1.1,1.1,0,0,0,.7-.3.9.9,0,0,0,.3-.7v-.5a.9.9,0,0,0-.3-.7A1.1,1.1,0,0,0,53,52.2Z" style="fill: #734060"/>
<path d="M98.3,52.1H97a8.1,8.1,0,0,1-3.6-.4.1.1,0,0,1-.1-.1h-.1V29.3a10,10,0,0,0-.8-4.3,8,8,0,0,0-4-4.3,15.2,15.2,0,0,0-6.8-1.4,14.2,14.2,0,0,0-9,3.6,21.4,21.4,0,0,0-4.8,5.9V20.4a1,1,0,0,0-1-1H61.9a1.1,1.1,0,0,0-.8.3,1.1,1.1,0,0,0-.3.7V21a.9.9,0,0,0,.3.7,1.1,1.1,0,0,0,.8.3h.8a6,6,0,0,1,2.1.3h.1s.1,0,.1.2V51.5h0c0,.1,0,.1-.2.2a11.7,11.7,0,0,1-3.5.4H60a1.1,1.1,0,0,0-.8.3,1.5,1.5,0,0,0-.3.7v.5a1,1,0,0,0,.4.7.8.8,0,0,0,.7.3H73.4a.9.9,0,0,0,.7-.3,1.1,1.1,0,0,0,.3-.7v-.5a.9.9,0,0,0-.3-.7,1.1,1.1,0,0,0-.7-.3H71.6a8,8,0,0,1-3.5-.5h-.2V38.9a18.7,18.7,0,0,1,4.3-11.7,15.2,15.2,0,0,1,4.4-3.7,10.8,10.8,0,0,1,5-1.4c3.1,0,5.3.7,6.6,1.9a6,6,0,0,1,1.6,2.2,9.8,9.8,0,0,1,.5,3.2V51.6h-.1a.1.1,0,0,1-.1.1,9.1,9.1,0,0,1-3.6.5H84.9a1.1,1.1,0,0,0-.8.3.9.9,0,0,0-.3.7v.5a1.1,1.1,0,0,0,.3.7,1.1,1.1,0,0,0,.8.3H98.3a1,1,0,0,0,1-1v-.5a1.1,1.1,0,0,0-.3-.8A1.1,1.1,0,0,0,98.3,52.1Z" style="fill: #734060"/>
<path d="M130.3,48.3a1,1,0,0,0-1.4-.1,17.5,17.5,0,0,1-11.1,3.9,13.9,13.9,0,0,1-10.4-4.2,15.2,15.2,0,0,1-4-10.8,15.8,15.8,0,0,1,3.8-10.9,13,13,0,0,1,9.9-4.2,15.7,15.7,0,0,1,7,1.6,7.2,7.2,0,0,1,2.1,1.6c.5.5,0,1.3,0,1.7a1.8,1.8,0,0,0,.6,1.6,2.2,2.2,0,0,0,1.8.3c.8-.2,1.1-.4,1.3-.8a2.4,2.4,0,0,0,.4-1.3,4.2,4.2,0,0,0-1.2-2.8,12,12,0,0,0-4.8-3.3,19.7,19.7,0,0,0-7.2-1.3,16.1,16.1,0,0,0-11.9,5.1,18,18,0,0,0-4.7,12.7,17.8,17.8,0,0,0,4.9,12.7,16.9,16.9,0,0,0,12.4,5,20.2,20.2,0,0,0,12.8-4.5,2,2,0,0,0,.4-.8,1.1,1.1,0,0,0-.3-.7Z" style="fill: #734060"/>
<path d="M173,52.1h-1.3a9.1,9.1,0,0,1-3.6-.5c-.1,0-.1,0-.1-.1h0V29.2a11.8,11.8,0,0,0-.7-4.3,9.2,9.2,0,0,0-4-4.3,15.9,15.9,0,0,0-6.8-1.4,14,14,0,0,0-9,3.6,19.8,19.8,0,0,0-4.8,5.9V5a1,1,0,0,0-.4-.7.9.9,0,0,0-.7-.3h-5.6a1,1,0,0,0-1,1v.5a.8.8,0,0,0,.3.7,1.1,1.1,0,0,0,.7.3h1.5a6,6,0,0,1,2.1.3h.2V51.4h-.1a10.1,10.1,0,0,1-3.6.4h-1.3a.9.9,0,0,0-.7.3,1.1,1.1,0,0,0-.3.7v.5a.8.8,0,0,0,.3.7.9.9,0,0,0,.7.3h13.4a1,1,0,0,0,1-1v-.5a1,1,0,0,0-1-1h-1.7a9.2,9.2,0,0,1-3.6-.4h-.2V38.9A18.6,18.6,0,0,1,147,27.2a17.4,17.4,0,0,1,4.4-3.8,10.2,10.2,0,0,1,5-1.4c3,0,5.1.7,6.5,1.9a6,6,0,0,1,1.6,2.2,7.6,7.6,0,0,1,.6,3.2V51.5h-.2a8.3,8.3,0,0,1-3.6.5h-1.7a.8.8,0,0,0-.7.3.9.9,0,0,0-.3.7v.5a1,1,0,0,0,1,1H173a.9.9,0,0,0,.7-.3,1.1,1.1,0,0,0,.3-.7v-.5a1,1,0,0,0-1-1Z" style="fill: #734060"/>
<path d="M283.1,19.3H270.4a1.1,1.1,0,0,0-.7.3.9.9,0,0,0-.3.7v.5a1,1,0,0,0,1,1h3.2a14.8,14.8,0,0,1,3.5.2h.3l-.2.5L265.6,50,255,24.5h0l-1-2.3-.8-1.3a4.9,4.9,0,0,0-1.8-1.4,5.3,5.3,0,0,0-2.3-.4,4.7,4.7,0,0,0-1.5.2,2.4,2.4,0,0,0-1,.5,1.2,1.2,0,0,0-.5.5,1.9,1.9,0,0,0-.2.8c0,.2.1.4.1.6a1.8,1.8,0,0,0,.7.8l.9.2h.5a2.7,2.7,0,0,1,1.2-.2h1.4a2.8,2.8,0,0,1,.6.8,21.7,21.7,0,0,1,1,2.1h0l11.2,27.1h0l.3.9a.4.4,0,0,1,.1.3c0,.1,0,.2.1.2l-.2.3h0c-1.7,4-3.4,7.3-5.4,9.5a11.8,11.8,0,0,1-3.1,2.5,8.2,8.2,0,0,1-3.5.8,8.5,8.5,0,0,1-4.7-1.2,4.5,4.5,0,0,1-1.2-1.2,2.9,2.9,0,0,1-.4-1.6c0-.3,1-1.1,1-2.2a2,2,0,0,0-.9-1.8,2.5,2.5,0,0,0-2.7.3,3.7,3.7,0,0,0-.6,1,5.6,5.6,0,0,0-.3,2.2,6.3,6.3,0,0,0,.7,3,7.3,7.3,0,0,0,3.6,3.1,13.1,13.1,0,0,0,5.5,1.1,10.8,10.8,0,0,0,4.7-1.1,15.6,15.6,0,0,0,5.5-5.1,42.8,42.8,0,0,0,4.3-8.3l13.4-31.8h0a1.9,1.9,0,0,1,1-1.3,4.8,4.8,0,0,1,2.1-.4h.3a1.1,1.1,0,0,0,.8-.3,1.1,1.1,0,0,0,.3-.7v-.5a.8.8,0,0,0-.3-.7A.8.8,0,0,0,283.1,19.3Z" style="fill: #734060"/>
<polygon points="244.4 60.5 244.4 60.5 244.4 60.5 244.4 60.5" style="fill: #734060"/>
<path d="M323.9,51.4l-2.9.5c0-.1-.1-.1-.1-.2a6.7,6.7,0,0,1-.6-1.2,10.6,10.6,0,0,1-.4-1.9h0l-.3-3.2V20.1a1,1,0,0,0-1-1h-5a1.1,1.1,0,0,0-.7.3,1.1,1.1,0,0,0-.3.8v.4a1.1,1.1,0,0,0,.3.8,1.1,1.1,0,0,0,.7.3h.8a8.2,8.2,0,0,1,2.2.2h.1a.3.3,0,0,1,.1.2V35a18.2,18.2,0,0,1-4.4,11.7,15.6,15.6,0,0,1-4.4,3.8,11.3,11.3,0,0,1-5,1.3c-3.1,0-5.3-.7-6.6-1.8a6.9,6.9,0,0,1-1.6-2.2,10.2,10.2,0,0,1-.5-3.2V20.2a1,1,0,0,0-1.1-1.1h-4.9a1,1,0,0,0-1,1.1v.5a1.1,1.1,0,0,0,.3.7.9.9,0,0,0,.7.3h.8a6.7,6.7,0,0,1,2.1.2h.2V44.7a11.2,11.2,0,0,0,.8,4.2,8,8,0,0,0,4,4.3,14,14,0,0,0,6.8,1.4,14.5,14.5,0,0,0,9-3.5,21.9,21.9,0,0,0,4.8-6v.4h0l.3,3.2h0a9.3,9.3,0,0,0,1,3.7,5.8,5.8,0,0,0,1.1,1.5,3.5,3.5,0,0,0,1.8.6h.2l3.1-.5c.3-.1.6-.2.7-.5a1,1,0,0,0,.2-.7v-.7A1.2,1.2,0,0,0,323.9,51.4Z" style="fill: #734060"/>
<path d="M388.4,52.1a1.1,1.1,0,0,0-.8-.3h-1.2a9.2,9.2,0,0,1-3.6-.4h-.2V28.9a10.7,10.7,0,0,0-.7-4.1,8.1,8.1,0,0,0-3.5-4.4,12.8,12.8,0,0,0-6.1-1.4,12.6,12.6,0,0,0-8.6,3.6,19,19,0,0,0-4,5.2,13.3,13.3,0,0,0-.6-3,8.7,8.7,0,0,0-3.6-4.4,13.2,13.2,0,0,0-6.2-1.4,12.8,12.8,0,0,0-8.6,3.6,22.2,22.2,0,0,0-3.9,5.1V20.1a1,1,0,0,0-1-1h-5a1,1,0,0,0-1,1v.5a.8.8,0,0,0,.3.7,1.1,1.1,0,0,0,.7.3h.8a6.8,6.8,0,0,1,2.2.3h.1V51.2h-.2a9.2,9.2,0,0,1-3.6.4H329a1.1,1.1,0,0,0-.8.3,1.1,1.1,0,0,0-.3.7v.5a.9.9,0,0,0,.3.7,1.1,1.1,0,0,0,.8.3h13.4a1.1,1.1,0,0,0,.7-.3.9.9,0,0,0,.3-.7v-.5a.9.9,0,0,0-.3-.7,1.1,1.1,0,0,0-.8-.3h-1.7a10.1,10.1,0,0,1-3.6-.4h-.1V38.7a20.3,20.3,0,0,1,3.8-11.8,11.7,11.7,0,0,1,4-3.7,9.2,9.2,0,0,1,4.7-1.4,11.1,11.1,0,0,1,3.4.5,5.7,5.7,0,0,1,3.1,2.3,8.3,8.3,0,0,1,1.1,4.5V51.3h0a.1.1,0,0,1-.1.1,9.1,9.1,0,0,1-3.6.5h-1a1.1,1.1,0,0,0-.7.3.9.9,0,0,0-.3.7v.5a.9.9,0,0,0,.3.7,1.1,1.1,0,0,0,.7.3h12.3a.8.8,0,0,0,.7-.3,1.3,1.3,0,0,0,.4-.7v-.5a.8.8,0,0,0-.4-.7.8.8,0,0,0-.7-.3h-.9a8.3,8.3,0,0,1-3.6-.5h-.2V38.6a20.4,20.4,0,0,1,3.7-11.8,13.5,13.5,0,0,1,4-3.6,9.2,9.2,0,0,1,4.8-1.4,11.6,11.6,0,0,1,3.4.5,5.8,5.8,0,0,1,3,2.3,9.2,9.2,0,0,1,1,4.4V51.3h0a.1.1,0,0,1-.1.1,10.1,10.1,0,0,1-3.6.4h-1l-.7.3a1.1,1.1,0,0,0-.3.8v.5a1,1,0,0,0,1,1h12.6a1,1,0,0,0,1.1-1.1v-.4A1.1,1.1,0,0,0,388.4,52.1Z" style="fill: #734060"/>
</g>
<path d="M236.4,41.5h-.6a1.6,1.6,0,0,0-1.2.6,20.2,20.2,0,0,1-2.6,3.2,16.1,16.1,0,0,1-3,2.1,16.3,16.3,0,0,1-3.7,1.3l-2.3.2h-3.3l-2.9-.6-.4-.2c-.1-.1-.3-.2-.3-.4a.5.5,0,0,1,0-.6h0c.1-.6.1-1.2.2-1.8h0c.1-.5.1-1,.2-1.6a1.5,1.5,0,0,1,.3-.7h0l2.1-2.3,2.2-2.7h0c1.2-1.7,2.4-3.4,3.5-5.2a46.5,46.5,0,0,0,3.2-6.3,41.3,41.3,0,0,0,2.4-7,17.2,17.2,0,0,0,.8-3.8,7.6,7.6,0,0,0,.3-2.1c.1-1,.3-1.9.3-2.8v-1a19.8,19.8,0,0,0-.3-3.5,8.6,8.6,0,0,0-1.9-4.7A4.2,4.2,0,0,0,227.9.3a3.3,3.3,0,0,0-1.5-.3h-.6a4.5,4.5,0,0,0-2.5,1.2,10.8,10.8,0,0,0-3,4.6,50.8,50.8,0,0,0-1.7,5.1c-.8,3-1.3,6-1.9,9.1l-.6,3.8c-.1,1.3-.3,2.6-.4,3.9h0c-.1.4-.1.9-.2,1.4a9.9,9.9,0,0,0-.2,1.7h0a12.3,12.3,0,0,0-.2,1.9h0c-.1.5-.1,1.1-.2,1.6h0a12.3,12.3,0,0,0-.2,2h0c-.1.6-.1,1.2-.2,1.9h0l-.3,2.5h0a3.2,3.2,0,0,1-.6,1.8h0a10.5,10.5,0,0,1-4.6,3.4,11.4,11.4,0,0,1-2.5.6h-4.3l.5-.8,1-1.7a15.7,15.7,0,0,0,1.5-2.9,9.4,9.4,0,0,0,1-2.8h0l.6-2.7a16.3,16.3,0,0,0,.3-3.1,5.3,5.3,0,0,0,.1-1.3c0-.6-.1-1.2-.1-1.8h0a14.2,14.2,0,0,0-.4-2h0a9.3,9.3,0,0,0-2.8-4.9,7.4,7.4,0,0,0-2.2-1.4,10.5,10.5,0,0,0-2.4-.6h-3.1a11.4,11.4,0,0,0-4.3,1.7,18.3,18.3,0,0,0-4.6,4.6,37.5,37.5,0,0,0-2.4,4.4c-.3,1-.7,1.9-.9,2.9s-.3,1.8-.5,2.8h0a26.4,26.4,0,0,0-.2,2.8c0,.2-.1.3-.1.5a21.1,21.1,0,0,0,.2,2.5,16.8,16.8,0,0,0,.9,3.2,10,10,0,0,0,2,2.9,7.1,7.1,0,0,0,2.7,1.8,11.7,11.7,0,0,0,3.8.7h.2l1.6-.2a10.4,10.4,0,0,0,4.4-2,2,2,0,0,1,1.3-.4h.3a2.3,2.3,0,0,1,1.1.2h4.2a17.5,17.5,0,0,0,6.6-2.2l.4-.3.3.5a1.7,1.7,0,0,1,.1.7,5.4,5.4,0,0,1-.1.8l-.3,2.6c-.1,1-.3,1.9-.4,2.9h0a6.9,6.9,0,0,0-.2,1.3h0c-.1.9-.3,1.7-.4,2.6h0l-.3,2.5-.6,3.7h0c-.1.4-.1.8-.2,1.3h0c-.1.8-.3,1.6-.4,2.5h0l-.3,2.4c-.1.9-.3,1.7-.4,2.5s-.3,2-.4,3a5.2,5.2,0,0,0-.2,1.1h0v2.3h0a7.6,7.6,0,0,0,.3,2.1h0a8.6,8.6,0,0,0,1.3,2.9,5.5,5.5,0,0,0,2.4,1.8,7.6,7.6,0,0,0,2.6.6h.1l1.2-.2a8,8,0,0,0,2.5-1.1,10.9,10.9,0,0,0,2.4-2.4,11.4,11.4,0,0,0,1.5-3.4,26.8,26.8,0,0,0,.7-2.7,26,26,0,0,0,.3-2.6,21.8,21.8,0,0,0,.1-2.5v-.8l-.3-3.9h0a12.9,12.9,0,0,0-.4-1.9c-.4-1.6-.8-3.2-1.3-4.7a41.6,41.6,0,0,0-1.6-4l-1.1-2.2h0a23.9,23.9,0,0,0-1.2-2.2l-.2-.5-.2-.6h1.2l.9.2h3.2a11.8,11.8,0,0,0,3.1-.5,15.4,15.4,0,0,0,7.6-4.4,16.8,16.8,0,0,0,2.5-2.9l.3-.9h0v-.2A1.1,1.1,0,0,0,236.4,41.5Zm-19.2-5.1c0-.4.1-.8.1-1.1l.3-1.9h0c.1-.5.1-.9.2-1.4h0c0-.6.1-1.2.1-1.8h0l.3-1.7h0c.1-.4.1-.9.2-1.4h0c.2-1.4.3-2.8.5-4.2s.5-3.3.8-5h0c.5-2.2.9-4.5,1.5-6.7s.9-2.9,1.5-4.3a10.1,10.1,0,0,1,2.2-3.7,1.7,1.7,0,0,1,1.2-.5h.2a2.1,2.1,0,0,1,1.1.4l.5.7h0a7.3,7.3,0,0,1,.9,2.3,21.9,21.9,0,0,1,.3,3.6v1l-.3,2.6h0a28.7,28.7,0,0,1-.5,3.1,33.8,33.8,0,0,1-.8,3.4,38.2,38.2,0,0,1-1.8,5.1,49.7,49.7,0,0,1-2.5,5.2c-.9,1.6-1.9,3-2.8,4.5s-1.5,1.9-2.3,2.9l-.8,1.1V36.5ZM195.7,48.1c-.1,0-.1.1-.2.2l-.3.2h0a5.8,5.8,0,0,1-1.8.4h-1.3a7,7,0,0,1-3-.9,5,5,0,0,1-2.1-2.4,10.3,10.3,0,0,1-1.1-3.9c0-.3-.1-.7-.1-1.1v-.2h0c.1-1,.1-2,.3-3h0v-.4a1.6,1.6,0,0,1,.3-.8l.5-.7.3.9a4.9,4.9,0,0,1,.4,1.1h0a15.3,15.3,0,0,0,1.8,3.9,13.3,13.3,0,0,0,2.3,3,10.4,10.4,0,0,0,3.2,2.3h0l.7.5.7.3Zm4.5-3.5-.9,1-.3.3h-.3a12.5,12.5,0,0,1-5.8-3.8,14.8,14.8,0,0,1-3.3-6.9,13.3,13.3,0,0,1-.3-2.8v-.4h0a9.9,9.9,0,0,1,2-5.7,8.3,8.3,0,0,1,2.1-1.7,9.5,9.5,0,0,1,3.5-1.4h1.3a7,7,0,0,1,3.6,1.2,5,5,0,0,1,1.8,2.3h0a9,9,0,0,1,.9,3.3,12.1,12.1,0,0,1,.1,1.9v.8c0,.8-.2,1.5-.2,2.2h0a20,20,0,0,1-.5,2.6,18.5,18.5,0,0,1-1.8,4.4A17.3,17.3,0,0,1,200.2,44.6Zm18.3,13.2a46.5,46.5,0,0,1,2,5.2c.4,1.3.7,2.6,1,4a25.9,25.9,0,0,1,.4,4.8v2.3a14,14,0,0,1-.7,4,11.7,11.7,0,0,1-.6,2,7.9,7.9,0,0,1-1.8,2.9,4.7,4.7,0,0,1-3.2,1.4h-.2a3.6,3.6,0,0,1-2.5-1.3,5.6,5.6,0,0,1-1.3-3.5h0V78.3c.1-.6.1-1.2.2-1.9s.3-1.8.4-2.7h0c.2-.9.3-1.7.4-2.5s.2-1.6.4-2.4h0a25.1,25.1,0,0,1,.4-2.7h0l.3-2.2c.1-1,.3-1.9.4-2.8l.3-2.6h0a17,17,0,0,1,.4-2.2h0a11.1,11.1,0,0,1,.2-1.7h0c.1-.3.1-.6.2-1.1l.2-1.4.7,1.2.9,1.5h0C217.5,55.8,218.1,56.8,218.5,57.8Z" style="fill: #979797;fill-rule: evenodd"/>
</g>
</g>
</g>
<title>Pinch of Yum logo</title></svg>